<svg id="Layer_1"
    xmlns="http://www.w3.org/2000/svg"
    xmlns:xlink="http://www.w3.org/1999/xlink" viewBox="0 0 48.27 55.3">
    <defs>
        <style>.cls-1{fill:#f67280;}.cls-1,.cls-2,.cls-3,.cls-4,.cls-5,.cls-6{stroke-width:0px;}.cls-7{isolation:isolate;}.cls-2{fill:#6c5b7b;}.cls-4{fill:none;}.cls-8{clip-path:url(#clippath-1);}.cls-5{fill:#b3b3b3;}.cls-9{clip-path:url(#clippath);}.cls-6{fill:#c06c84;}</style>
        <clipPath id="clippath">
            <polygon class="cls-4" points="25.6 52.25 25.53 29.37 46.34 17.37 46.4 40.24 25.6 52.25"></polygon>
        </clipPath>
        <clipPath id="clippath-1">
            <polygon class="cls-4" points="2.32 41.08 2.39 17.36 22.3 28.85 22.23 52.57 2.32 41.08"></polygon>
        </clipPath>
    </defs>
    <path class="cls-3" d="M24.63,55.28h-1.03c-1.25-.73-2.5-1.47-3.76-2.19-6.48-3.73-12.96-7.45-19.45-11.17C.12,41.76,0,41.56,0,41.22c0-8.99,0-17.97,0-26.96,0-.31.09-.51.37-.67C8.13,9.12,15.88,4.64,23.62.16c.36-.21.64-.21,1,0,7.74,4.49,15.5,8.96,23.25,13.44.26.15.37.34.37.64,0,9.01,0,18.02,0,27.03,0,.34-.16.52-.44.68M24.31,55.06"></path>
    <path class="cls-3" d="M2.09,14.27c.97-.56,1.9-1.1,2.82-1.63,6.28-3.63,12.56-7.26,18.84-10.89.27-.15.46-.16.73,0,7.11,4.12,14.23,8.23,21.35,12.35.1.06.19.12.32.2-1.04.6-2.04,1.18-3.04,1.76-6.23,3.6-12.46,7.2-18.69,10.81-.23.13-.38.13-.61,0-7.12-4.13-14.25-8.25-21.37-12.38-.1-.06-.19-.12-.34-.2Z"></path>
    <path class="cls-3" d="M24.83,28.84c0-.31.11-.51.37-.66,7.12-4.11,14.24-8.22,21.35-12.33.08-.05.17-.09.32-.16v.41c0,8.23,0,16.46,0,24.69,0,.24-.05.38-.28.51-7.1,4.07-14.2,8.15-21.29,12.23-.14.08-.27.15-.45.25"></path>
    <path class="cls-3" d="M1.38,15.68c.15.08.26.14.37.2,7.13,4.12,14.25,8.25,21.38,12.36.2.11.29.23.29.47,0,8.25,0,16.51,0,24.76v.3c-.13-.07-.23-.11-.32-.16-7.16-4.11-14.31-8.23-21.47-12.34-.18-.1-.25-.21-.25-.42"></path>
    <path class="cls-3" d="M1.38,15.68c.15.08.26.14.37.2,7.13,4.12,14.25,8.25,21.38,12.36.2.11.29.23.29.47,0,8.25,0,16.51,0,24.76v.3c-.13-.07-.23-.11-.32-.16-7.16-4.11-14.31-8.23-21.47-12.34-.18-.1-.25-.21-.25-.42"></path>
    <path class="cls-3" d="M24.63,55.28h-1.03c-1.25-.73-2.5-1.47-3.76-2.19-6.48-3.73-12.96-7.45-19.45-11.17C.12,41.76,0,41.56,0,41.22c0-8.99,0-17.97,0-26.96,0-.31.09-.51.37-.67C8.13,9.12,15.88,4.64,23.62.16c.36-.21.64-.21,1,0,7.74,4.49,15.5,8.96,23.25,13.44.26.15.37.34.37.64,0,9.01,0,18.02,0,27.03,0,.34-.16.52-.44.68M24.31,55.06"></path>
    <path class="cls-1" d="M2.09,14.27c.97-.56,1.9-1.1,2.82-1.63,6.28-3.63,12.56-7.26,18.84-10.89.27-.15.46-.16.73,0,7.11,4.12,14.23,8.23,21.35,12.35.1.06.19.12.32.2-1.04.6-2.04,1.18-3.04,1.76-6.23,3.6-12.46,7.2-18.69,10.81-.23.13-.38.13-.61,0-7.12-4.13-14.25-8.25-21.37-12.38-.1-.06-.19-.12-.34-.2Z"></path>
    <path class="cls-2" d="M24.83,28.84c0-.31.11-.51.37-.66,7.12-4.11,14.24-8.22,21.35-12.33.08-.05.17-.09.32-.16v.41c0,8.23,0,16.46,0,24.69,0,.24-.05.38-.28.51-7.1,4.07-14.2,8.15-21.29,12.23-.14.08-.27.15-.45.25"></path>
    <path class="cls-6" d="M1.38,15.68c.15.08.26.14.37.2,7.13,4.12,14.25,8.25,21.38,12.36.2.11.29.23.29.47,0,8.25,0,16.51,0,24.76v.3c-.13-.07-.23-.11-.32-.16-7.16-4.11-14.31-8.23-21.47-12.34-.18-.1-.25-.21-.25-.42"></path>
    <g class="cls-7">
        <g class="cls-9">
            <path class="cls-5" d="M27.79,38.71l-.02-6.54.74-.43c1-.58,1.49.23,1.5,2.41s-.48,3.56-1.48,4.13l-.74.43M28.5,27.66l-2.97,1.71.06,22.88,2.23-1.29-.02-8.17.74-.43,1.89,7.1,2.6-1.5-2.27-8.34c1-1.77,1.5-4.02,1.49-6.75-.01-4.9-1.26-6.64-3.74-5.2"></path>
            <polyline class="cls-5" points="39.28 21.44 33.33 24.87 33.39 47.75 39.35 44.31 39.33 40.23 35.61 42.38 35.6 37.15 38.94 35.22 38.93 31.13 35.59 33.07 35.57 27.67 39.29 25.52 39.28 21.44"></polyline>
            <polyline class="cls-5" points="46.34 17.37 40.38 20.8 40.45 43.68 42.68 42.39 42.65 33.08 46 31.15 45.99 27.06 42.64 28.99 42.62 23.6 46.35 21.45 46.34 17.37"></polyline>
        </g>
    </g>
    <g class="cls-7">
        <g class="cls-8">
            <path class="cls-5" d="M6.93,39.61c-1.02-.59-1.53-2.53-1.52-5.82l.02-5.44c0-3.4.53-4.8,1.55-4.21s1.53,2.59,1.52,5.98l-.02,5.44c0,3.29-.52,4.64-1.55,4.05M6.98,20.01c-3.06-1.77-4.61.42-4.62,6.57l-.02,5.44c-.02,6.04,1.51,9.95,4.57,11.71s4.61-.37,4.62-6.41l.02-5.44c.02-6.15-1.51-10.11-4.57-11.88"></path>
            <path class="cls-5" d="M16.11,44.58l.04-14.82,1.03.59c1.36.79,2.04,2.87,2.03,6.28v4.78c-.02,3.29-.71,4.55-2.07,3.77l-1.03-.59M17.19,26.24l-4.09-2.36-.07,23.06,4.09,2.36c3.4,1.96,5.12-.07,5.13-6.11v-4.78c.03-6.15-1.67-10.21-5.07-12.17"></path>
        </g>
    </g>
</svg>